<?xml version="1.0" encoding="UTF-8"?>
<svg version="1.1" xmlns="http://www.w3.org/2000/svg" viewbox="0 0 1200 250"  width="1200" height="250">
	<path d="M0 0 C0 2.31 0 4.62 0 7 C-2.7785311 8.06866581 -3.82358984 8.06936894 -6.65234375 6.95703125 C-10.71107417 5.79671742 -13.89156188 6.25025079 -17.9375 7.0625 C-19.05729248 7.27894165 -19.05729248 7.27894165 -20.19970703 7.49975586 C-40.75542863 11.68364452 -58.27568245 21.48035792 -75.13427734 33.65625 C-76.94989793 34.96391497 -78.77863786 36.25045178 -80.61328125 37.53125 C-87.05608922 42.04771986 -93.29625007 46.76077537 -99.44726562 51.66601562 C-106.48524969 57.24135719 -113.80497762 62.43146767 -121.11572266 67.640625 C-122.47223759 68.61925614 -123.80259599 69.63451597 -125.11474609 70.671875 C-127 72 -127 72 -129 72 C-121.07299086 90.18888278 -107.43501182 110.33983166 -89 119 C-83.92436928 120.94874581 -79.46098616 122.17397832 -74 122 C-74.09539062 121.24976563 -74.19078125 120.49953125 -74.2890625 119.7265625 C-75.46567588 108.86341108 -73.84935762 100.74579637 -69 91 C-67.00045254 90.95745644 -64.99958364 90.95919217 -63 91 C-62 92 -62 92 -61.75 94.5625 C-61.97091548 97.60008782 -62.3431691 99.05982248 -63.5 101.75 C-65.39972125 106.48566875 -65.75797624 110.95553743 -65 116 C-62.07911003 121.59837245 -56.43328606 123.9158044 -50.625 125.75 C-27.34715056 127.96693804 -8.33252984 115.04069278 9 101 C11.14156226 99.05899675 13.25905649 97.11188859 15.31640625 95.08203125 C17 94 17 94 19.08984375 94.19921875 C21 95 21 95 23 97 C23.01171875 98.953125 23.01171875 98.953125 22.6875 101.25 C22.52507812 102.44689453 22.52507812 102.44689453 22.359375 103.66796875 C21.93062763 106.45016636 21.49733464 109.22913555 21 112 C21.51046875 111.49210937 22.0209375 110.98421875 22.546875 110.4609375 C29.01868853 104.33336937 37.02941433 97.91471428 46.3125 97.375 C52.3502321 98.39834442 56.14847296 100.54710062 59.875 105.4375 C61.70800413 108.22607022 62.69344205 110.62786256 63 114 C63.66 114 64.32 114 65 114 C65.23074219 113.42507812 65.46148437 112.85015625 65.69921875 112.2578125 C67.32986472 109.42744201 69.25193711 107.89427448 71.8125 105.875 C72.66457031 105.19179687 73.51664062 104.50859375 74.39453125 103.8046875 C79.23856168 100.44945203 83.10280186 99.47346445 89 100 C94.30214199 102.24551263 96.03767369 106.07306608 98.6875 110.875 C102.65329311 117.65962402 106.16450136 121.7868153 114 124 C114.67417969 124.19078125 115.34835937 124.3815625 116.04296875 124.578125 C126.84575296 126.9068689 137.33164618 122.82124349 146.5625 117.4375 C157.07156293 110.55489378 164.94180972 104.53568596 168 92 C168.3482635 90.65162133 168.69886457 89.30384517 169.05126953 87.95654297 C169.86253936 84.84735776 170.66588958 81.7362832 171.46337891 78.62353516 C186.39784312 20.46926749 186.39784312 20.46926749 200 12 C202.625 10.9375 202.625 10.9375 205 11 C208.71801731 12.68196021 210.78514961 14.61943888 213 18 C217.57084613 32.12309344 208.37615191 48.78697152 202.203125 61.03125 C196.02716389 72.81260902 188.66322324 83.93834084 180.92016602 94.74169922 C175.98954556 101.62378785 173.89766595 106.46241674 174 115 C174.60585938 114.46890625 175.21171875 113.9378125 175.8359375 113.390625 C182.60645917 107.68255442 189.4257264 102.43516652 198.6875 102.9375 C205.29792552 104.12458346 209.21231151 107.70576904 213 113.0625 C216.45542944 117.86926536 219.64291692 120.16346301 225.3984375 121.59765625 C240.76340027 123.91817116 256.63793975 115.04249132 268.79296875 106.3671875 C273.88819845 102.57183986 278.52909978 98.51451876 283 94 C289.61076297 88.10059928 296.53067111 83.58599952 305.5 82.625 C308 83 308 83 310 85 C309.96875 87.4765625 309.96875 87.4765625 309 90 C306.59375 91.3359375 306.59375 91.3359375 303.5 92.375 C293.10041599 96.32733597 284.67670698 103.29709488 279.625 113.3125 C277.58698151 118.19700713 277.60800777 122.78432562 278 128 C288.01503216 122.62187602 292.74272559 111.1618906 297.41088867 101.28710938 C300.40362148 95.22457769 300.40362148 95.22457769 303.80078125 93.9453125 C304.52652344 93.96335937 305.25226562 93.98140625 306 94 C308.78518125 97.23237937 309.74780494 100.14679165 310.8125 104.25 C313.22079419 112.32593391 316.19674806 117.61837968 323.5625 121.9375 C332.1868307 126.47257586 341.49991015 125.65413302 350.640625 123.16015625 C360.49317617 119.75758916 369.59372284 114.49609433 378.375 108.9375 C379.32983276 108.35730103 379.32983276 108.35730103 380.30395508 107.76538086 C383.36696262 105.74477786 384.88221864 104.29648411 386.24609375 100.86328125 C386.49488281 99.58839844 386.74367188 98.31351562 387 97 C387.41184898 95.31555135 387.83321182 93.63341326 388.26171875 91.953125 C388.48947998 91.03595703 388.71724121 90.11878906 388.9519043 89.17382812 C395.31480568 63.88272062 404.87452721 29.05181359 427 13 C429.94360616 11.29305679 430.94939319 10.99909631 434.5 11.0625 C438 12 438 12 440.4375 13.8125 C444.01050363 21.1014274 442.49005894 28.24081839 439.99707031 35.6628418 C433.29374194 54.10825461 423.0850363 70.49605875 412.35351562 86.82788086 C411.10017993 88.83923145 410.01918517 90.86220438 409 93 C410.216875 92.9175 411.43375 92.835 412.6875 92.75 C416.03116277 92.74407152 416.9543162 92.97181212 419.9375 94.8125 C422 97 422 97 423 100 C425.43352759 101.3170383 427.77084613 102.43497558 430.3125 103.5 C431.03655029 103.80824707 431.76060059 104.11649414 432.5065918 104.43408203 C447.37131387 110.5991439 462.91823282 113.14884574 478.57421875 108.18359375 C484.28536543 105.80145753 490.59672969 102.40327031 495 98 C496.99958364 97.95919217 499.00045254 97.95745644 501 98 C502.0625 100.5 502.0625 100.5 502 104 C494.21627247 113.83510399 482.03378317 118.29035459 470 120 C456.77350245 120.97726146 444.3798507 119.10971844 431.875 114.5625 C429.22188179 113.76656454 426.74266904 113.78902546 424 114 C423.67128906 114.94359375 423.67128906 114.94359375 423.3359375 115.90625 C420.57490588 123.35879064 417.41940076 130.34340773 410.3125 134.5 C405.33536457 136.6303286 400.30783265 136.90898663 395 136 C391.54171015 134.54387796 389.63207139 132.33659365 388.01171875 128.91015625 C386.36239754 124.33739366 385.63870553 119.81666006 385 115 C384.14019531 115.58007812 383.28039062 116.16015625 382.39453125 116.7578125 C366.45340183 127.36172348 348.09073832 137.05011702 328.3515625 133.52734375 C319.58901977 131.27604431 312.72352031 126.61624182 307.2890625 119.41796875 C305.94846856 117.71101675 305.94846856 117.71101675 303 117 C302.45472656 117.71285156 301.90945313 118.42570312 301.34765625 119.16015625 C288.6947407 135.23044045 288.6947407 135.23044045 280.9765625 136.2734375 C280.20054687 136.30695313 279.42453125 136.34046875 278.625 136.375 C277.85414063 136.42398438 277.08328125 136.47296875 276.2890625 136.5234375 C274 136 274 136 271.7890625 133.90234375 C269.7300412 130.56205373 269.22021641 128.06678537 268.75 124.1875 C268.60046875 123.02605469 268.4509375 121.86460937 268.296875 120.66796875 C268.19890625 119.78753906 268.1009375 118.90710938 268 118 C267.46375 118.36351562 266.9275 118.72703125 266.375 119.1015625 C261.02105283 122.53583782 255.62719715 125.10076584 249.6875 127.3125 C249.00623047 127.56660645 248.32496094 127.82071289 247.62304688 128.08251953 C237.39828293 131.77982233 226.41007664 132.99114096 216.28515625 128.33203125 C211.10446875 125.31217751 207.11228325 121.73385331 203.875 116.6875 C202.17060425 113.82545917 202.17060425 113.82545917 199.1875 112.4375 C193.21372885 111.61757063 189.21110525 114.69186183 184.5625 118.0625 C179.55656273 122.08604344 175.83645729 126.89020035 172 132 C170.67149575 133.67051848 169.33945438 135.33824866 168 137 C163.125 136.125 163.125 136.125 162 135 C161.59817604 128.93718558 162.11210477 122.99329281 163 117 C162.27296875 117.58007812 161.5459375 118.16015625 160.796875 118.7578125 C146.20221945 130.0967372 132.57369001 135.75079865 114 134 C104.83305594 132.16880424 98.14552278 127.68826964 92.953125 119.94921875 C88 111.6775 88 111.6775 88 109 C78.48585848 109.86994327 72.37148541 118.26241145 66.47265625 125.17578125 C64.940011 127.02667403 64.940011 127.02667403 63.4765625 129.21484375 C62.98929687 129.80394531 62.50203125 130.39304688 62 131 C59.3125 131.25 59.3125 131.25 57 131 C54.99968516 127.59697475 54.53903063 124.51893604 54.0625 120.625 C53.17370462 113.88734237 53.17370462 113.88734237 50 108 C46.16738549 106.39564974 44.28884283 106.90039903 40.375 108.25 C30.85360427 113.54775556 23.3733463 122.23148509 17.1328125 130.98046875 C15 133 15 133 11.8046875 133.36328125 C9 133 9 133 8 132 C7.37235608 125.09591689 9.31864771 118.65535282 11 112 C9.989375 112.804375 8.97875 113.60875 7.9375 114.4375 C-1.52938014 121.52087486 -12.00561739 127.64663422 -23 132 C-23.74765625 132.31839844 -24.4953125 132.63679687 -25.265625 132.96484375 C-35.42072179 136.71255804 -48.86112367 136.56455622 -59.02734375 132.9375 C-60.95125455 132.02316615 -62.5879873 130.99476105 -64.3125 129.75 C-66.80707755 127.75065428 -66.80707755 127.75065428 -69.4375 128.125 C-70.283125 128.41375 -71.12875 128.7025 -72 129 C-80.71486567 131.90495522 -88.14341758 132.10292531 -96.578125 128.3046875 C-114.92328359 118.42197303 -129.08134898 98.89531767 -137 80 C-137 79.34 -137 78.68 -137 78 C-137.60328125 78.27714844 -138.2065625 78.55429688 -138.828125 78.83984375 C-139.62734375 79.20207031 -140.4265625 79.56429687 -141.25 79.9375 C-142.03890625 80.29714844 -142.8278125 80.65679687 -143.640625 81.02734375 C-146 82 -146 82 -148.04296875 82.32421875 C-151.02757095 83.35482989 -152.17617694 85.38575873 -154.0625 87.875 C-165.85869506 102.72591006 -184.07506133 120.68400159 -204 123 C-213.24131182 123.70789993 -222.23001085 123.16718401 -229.875 117.4375 C-235.38879782 112.13226191 -237.20656838 105.4860334 -237.4375 98 C-236.9488708 85.68969667 -231.86061391 76.06288457 -222.9765625 67.62890625 C-212.94541769 59.36213276 -203.28708134 56.70229099 -190.55078125 56.50390625 C-185.82755668 57.16380671 -182.53975166 59.05857399 -179.5625 62.8125 C-178.73562653 66.02811906 -179.38064623 68.7793604 -180 72 C-183.52191627 71.73911731 -184.21275268 70.75685408 -186.625 68 C-187.40875 67.01 -188.1925 66.02 -189 65 C-192.98267262 63.00866369 -197.75776653 64.21317849 -202 65 C-212.10241768 68.4167767 -218.66539341 74.9269792 -223.4375 84.3125 C-227.0535182 92.0076232 -228.59127461 99.13777204 -225.875 107.4375 C-222.61808154 111.88862189 -218.47408867 114.31367291 -213.08203125 115.37890625 C-202.18413423 116.26049172 -191.9381479 109.63938565 -183.75341797 103.01025391 C-181.09542251 100.74916451 -178.53215592 98.40052769 -176 96 C-174.60587891 94.69095703 -174.60587891 94.69095703 -173.18359375 93.35546875 C-168.26278597 88.58133184 -163.88448422 83.65302988 -160 78 C-160.66 77.01 -161.32 76.02 -162 75 C-162.84594715 68.91114784 -162.53884144 63.08960468 -159.3828125 57.7265625 C-156.77493714 54.47040174 -153.92531125 52.41710389 -150 51 C-146.61667993 50.62889509 -143.38535194 50.68782615 -140 51 C-139.73501709 50.30108643 -139.47003418 49.60217285 -139.19702148 48.88208008 C-137.90782792 45.77807639 -136.41789041 42.8584204 -134.84765625 39.88671875 C-134.23599609 38.72076172 -133.62433594 37.55480469 -132.99414062 36.35351562 C-132.03051291 34.52289207 -131.065442 32.69306009 -130.09790039 30.86450195 C-126.66577128 24.36950678 -123.34932447 17.97862066 -121 11 C-134.2910808 17.00465001 -147.8481313 23.22428447 -156 36 C-156 36.99 -156 37.98 -156 39 C-152.7 39.99 -149.4 40.98 -146 42 C-146.33 43.32 -146.66 44.64 -147 46 C-151.87282813 47.29942084 -157.0059816 47.74305464 -162 47 C-164.25 45 -164.25 45 -165 42 C-164.27723826 34.77238257 -160.79378873 30.28373508 -156 25 C-155.47019531 24.41476563 -154.94039063 23.82953125 -154.39453125 23.2265625 C-144.77809334 13.85218595 -129.09216012 5.79819484 -116 3 C-112.609375 3.38671875 -112.609375 3.38671875 -110 4 C-109.58509291 11.08154977 -110.62514293 15.71541284 -113.6875 22.0625 C-114.07744141 22.90014893 -114.46738281 23.73779785 -114.86914062 24.60083008 C-128.64378326 53.64378326 -128.64378326 53.64378326 -133 58 C-133.07148199 59.35243917 -133.08399454 60.70834367 -133.0625 62.0625 C-133.041875 63.361875 -133.02125 64.66125 -133 66 C-129.23529873 63.84093357 -125.85320578 61.42434753 -122.4375 58.75 C-116.61640218 54.21835858 -110.72429219 49.78751181 -104.8125 45.375 C-97.29335884 39.76173115 -97.29335884 39.76173115 -89.9375 33.9375 C-82.87534998 28.19714276 -75.46626341 22.89728909 -68.11132812 17.54150391 C-66.42682351 16.31162855 -64.75097001 15.06990681 -63.078125 13.82421875 C-46.78776299 1.93444111 -19.47511837 -12.10615466 0 0 Z M202 20 C193.4359466 32.61900293 188.434306 47.28380077 183.5625 61.625 C183.04937256 63.11700928 183.04937256 63.11700928 182.52587891 64.63916016 C180.59448091 70.47660174 179.44908696 75.86458658 179 82 C182.96167674 78.51990323 185.24708302 74.50089419 187.75 69.9375 C188.18393066 69.14891602 188.61786133 68.36033203 189.06494141 67.54785156 C196.39118185 53.95768895 205.56610235 36.78010298 205 21 C204.01 20.67 203.02 20.34 202 20 Z M427.875 22.5 C422.24357294 28.40410668 418.71321314 35.81114127 415 43 C414.65291992 43.66290039 414.30583984 44.32580078 413.94824219 45.00878906 C406.85867539 58.70531552 399.86199651 74.60574713 398 90 C401.82922866 86.39482195 404.86753921 82.59477442 407.75 78.1875 C408.17974121 77.53515381 408.60948242 76.88280762 409.05224609 76.21069336 C413.73413606 69.00917343 417.96238002 61.57849808 422 54 C422.36399902 53.31728027 422.72799805 52.63456055 423.10302734 51.93115234 C431.3861672 36.7592699 431.3861672 36.7592699 434 20 C430.57752931 20 430.25150963 20.24977832 427.875 22.5 Z M-150.6875 62.25 C-151.450625 63.1575 -152.21375 64.065 -153 65 C-152.67 66.32 -152.34 67.64 -152 69 C-150.02 66.03 -148.04 63.06 -146 60 C-148.3285839 59.78602111 -148.3285839 59.78602111 -150.6875 62.25 Z M-141 70 C-140 72 -140 72 -140 72 Z M406 94 C404.67830345 95.57951628 403.39281559 97.18941741 402.125 98.8125 C398.27690595 103.73266453 398.27690595 103.73266453 396.3046875 105.63671875 C393.55685465 108.50795726 393.72847512 112.08335943 393.77734375 115.8671875 C394.14543902 119.39315271 395.31427638 121.87828959 397 125 C399.86710308 127.31201886 399.86710308 127.31201886 403.375 127 C407.80813894 125.77706512 409.67856302 123.79253075 412 120 C414.28593294 115.58578468 415.86686766 111.98448903 415 107 C412.88592881 104.54310645 410.67694571 102.56023093 408.1875 100.5 C406.48964646 98.3553429 406.78513036 96.65005894 407 94 C406.67 94 406.34 94 406 94 Z " fill="#FFFFFF" transform="translate(262,60)" />
	<path d="M0 0 C2.875 1.8125 2.875 1.8125 5 5 C6.5540471 13.79725794 4.03589959 21.81866334 1 30 C0.58363281 31.17046875 0.16726563 32.3409375 -0.26171875 33.546875 C-3.98074449 43.48814147 -8.90518488 52.82943465 -13.875 62.1875 C-14.20721558 62.81631073 -14.53943115 63.44512146 -14.88171387 64.09298706 C-18.93011646 71.72875046 -23.1684445 79.12147746 -28.11972046 86.21562195 C-31.54119372 91.28509194 -32.30725805 95.97774216 -32 102 C-28.51061051 100.47589884 -26.0336009 98.38446531 -23.1875 95.875 C-15.47178782 89.44003357 -4.7521802 81.89746442 5.5625 81.8125 C6.74005859 81.79123047 6.74005859 81.79123047 7.94140625 81.76953125 C10 82 10 82 12 84 C12.375 86.4375 12.375 86.4375 12 89 C9.46869173 91.6325606 6.40095117 92.68629974 3.06640625 94.0546875 C-2.97102207 96.81661123 -8.44454595 100.15132133 -13 105 C-12.67 105.99 -12.34 106.98 -12 108 C6.81683743 116.26105058 33.16738585 109.29277616 51.625 102.8125 C59.97996944 99.45801102 67.84005001 94.49340579 74.73046875 88.70703125 C77 87 77 87 79.8125 87.25 C80.534375 87.4975 81.25625 87.745 82 88 C82.7421875 90.234375 82.7421875 90.234375 83 93 C71.73246852 109.16389333 46.35296377 115.03202394 28.31518555 118.59155273 C13.76929606 121.15775258 -4.81709088 122.46592713 -18 115 C-20.73737067 112.63254428 -21.84709902 111.45870295 -23 108 C-27.39806837 112.16385171 -31.16726335 116.35920004 -34.54296875 121.3984375 C-36.32546576 123.35775057 -37.36967951 123.8059181 -40 124 C-41.485 123.01 -41.485 123.01 -43 122 C-43.328125 119.8203125 -43.328125 119.8203125 -43.25 117.125 C-43.22421875 116.15175781 -43.1984375 115.17851562 -43.171875 114.17578125 C-42.89747944 109.10569957 -42.49385532 104.05319819 -42 99 C-42.59425781 99.37511719 -43.18851563 99.75023437 -43.80078125 100.13671875 C-61.27399801 110.92500343 -81.07013486 117.38018669 -101.6875 117.3125 C-102.68072266 117.32861328 -103.67394531 117.34472656 -104.69726562 117.36132812 C-112.97506521 117.36682832 -118.79726414 115.84829381 -125 110 C-127.73486531 105.51520339 -127.52580992 101.10569049 -127 96 C-126.2125521 93.16882893 -125.19863212 90.69692226 -124 88 C-125.175625 88.495 -126.35125 88.99 -127.5625 89.5 C-135.73090545 92.23576754 -146.05844035 92.5552331 -154 89 C-157.94952285 84.4878054 -159.23902928 77.85621746 -159 72 C-158.03940437 66.42115616 -155.99680796 61.90916639 -151.75 58.09765625 C-148.46954312 56.04004825 -145.85892611 55.93673892 -142 56 C-140.0625 57.0625 -140.0625 57.0625 -139 59 C-137.76485746 63.86337376 -138.30153832 66.92092162 -139.9375 71.625 C-141.24889925 75.43917138 -142 77.92905768 -142 82 C-136.92999438 81.67809488 -133.01025379 81.19201102 -128.4375 78.9375 C-123.99696975 76.79889086 -120.903301 76.49276197 -116 77 C-113 79 -113 79 -112.234375 80.89501953 C-111.76974738 85.06795634 -114.27522452 89.19114663 -115.90625 92.98046875 C-117.65558574 97.28091911 -118.80035334 100.45940298 -117 105 C-112.2463839 108.54088254 -107.38122124 108.50650816 -101.6875 108.4375 C-100.80739258 108.42992676 -99.92728516 108.42235352 -99.02050781 108.41455078 C-90.30429871 108.19954886 -82.29857674 106.59454783 -74 104 C-73.32485352 103.79101074 -72.64970703 103.58202148 -71.95410156 103.36669922 C-64.08684593 100.85286813 -56.81690072 97.61120977 -49.6875 93.4375 C-49.0589209 93.07374268 -48.4303418 92.70998535 -47.78271484 92.33520508 C-43.9711067 89.99117641 -41.96911512 87.98599761 -40 84 C-39.4218281 81.45292318 -38.96705278 79.02082426 -38.60546875 76.4453125 C-38.37347868 74.93908614 -38.14120854 73.4329029 -37.90869141 71.92675781 C-37.73288544 70.75046814 -37.73288544 70.75046814 -37.55352783 69.55041504 C-29.93025101 19.03619553 -29.93025101 19.03619553 -15 3 C-10.31259095 -0.12222203 -5.47060285 -2.11364201 0 0 Z M-12 12 C-19.86516161 24.33097371 -23.45363003 38.65067771 -26.375 52.8125 C-26.55506592 53.67891113 -26.73513184 54.54532227 -26.9206543 55.43798828 C-27.07832275 56.24864746 -27.23599121 57.05930664 -27.3984375 57.89453125 C-27.53942871 58.61487549 -27.68041992 59.33521973 -27.82568359 60.07739258 C-28.14933627 62.21965543 -28.14933627 62.21965543 -27 65 C-23.27430086 61.70966346 -21.07153321 57.92097453 -18.8125 53.5625 C-18.42956787 52.83111816 -18.04663574 52.09973633 -17.65209961 51.34619141 C-14.5443042 45.29513465 -11.75172221 39.12194809 -9.0625 32.875 C-8.68520752 31.9991626 -8.30791504 31.1233252 -7.91918945 30.22094727 C-4.0157738 21.21011017 -4.0157738 21.21011017 -2.875 11.5625 C-2.91625 10.386875 -2.9575 9.21125 -3 8 C-7.78573216 8 -8.63930926 8.74566023 -12 12 Z M-149 68 C-148 70 -148 70 -148 70 Z M-150 70 C-149 72 -149 72 -149 72 Z " fill="#FFFFFF" transform="translate(1099,73)" />
	<path d="M0 0 C0.94488281 -0.020625 1.88976562 -0.04125 2.86328125 -0.0625 C4.22259766 -0.07023437 4.22259766 -0.07023437 5.609375 -0.078125 C6.42889648 -0.0874707 7.24841797 -0.09681641 8.09277344 -0.10644531 C10.75168241 0.33289456 11.65599945 1.11037579 13.25 3.25 C12.97963853 6.22397616 12.39553974 7.10446026 10.25 9.25 C7.70140256 9.31904328 5.23024659 9.28515723 2.6875 9.1875 C-20.72167054 8.77997092 -41.57832677 17.1383066 -58.75 33.25 C-78.28058371 54.15597692 -85.78559174 84.03145783 -84.88623047 112.01220703 C-84.33001603 121.14887644 -80.86100384 129.02480161 -74.5 135.5625 C-68.44144735 139.28024822 -62.65719803 140.97093025 -55.5546875 139.953125 C-46.92496966 137.78968599 -36.1377606 133.70116269 -29.75 127.25 C-28.64909173 124.88092839 -28.64909173 124.88092839 -28.75 122.25 C-30.13106901 119.84888263 -30.13106901 119.84888263 -32.25 117.625 C-46.08876682 101.29863635 -51.4581285 85.3924875 -49.75 64.25 C-47.45716994 49.79269913 -38.13488417 34.38082992 -26.75 25.25 C-17.00788719 18.43052104 -8.65869194 16.2236155 3.25 17.25 C12.99373642 19.38524321 20.301541 25.81507214 25.625 34.0625 C32.0684462 45.76809393 32.78818495 57.62392896 29.203125 70.3671875 C23.27775544 88.289002 8.82213589 104.99956119 -4.57421875 117.98828125 C-6.95483566 120.11685046 -6.95483566 120.11685046 -7.625 123.1875 C-6.42243827 127.39646604 -4.40201029 128.38657774 -0.74609375 130.609375 C1.54050052 131.86148659 3.83382382 133.07526089 6.15234375 134.265625 C6.82773193 134.61512207 7.50312012 134.96461914 8.19897461 135.32470703 C9.55278739 136.01797005 10.91430008 136.69642266 12.28344727 137.35888672 C16.9817357 139.73122418 16.9817357 139.73122418 18.3125 142.3046875 C18.25 144.25 18.25 144.25 16.25 147.25 C9.45746052 146.85544475 4.94286327 144.86640929 -0.875 141.4375 C-1.64714844 140.99857422 -2.41929687 140.55964844 -3.21484375 140.10742188 C-6.5977519 138.16815681 -9.81899959 136.20053644 -12.9921875 133.92578125 C-16.02185314 132.08480879 -17.29029394 131.57358311 -20.75 132.25 C-23.28053259 133.77976049 -23.28053259 133.77976049 -25.75 135.875 C-36.97870812 144.41365422 -51.37535872 151.01671569 -65.75 149.25 C-75.59167546 146.99125481 -82.21211886 142.05346991 -88.0625 133.9375 C-92.37581621 127.04557083 -94.2660991 119.32967864 -94.75 111.25 C-94.80285156 110.42628906 -94.85570312 109.60257812 -94.91015625 108.75390625 C-95.76768557 81.87222611 -86.66243579 53.12420717 -69.75 32.25 C-68.82960938 31.08404297 -68.82960938 31.08404297 -67.890625 29.89453125 C-51.07101681 9.70405117 -25.71504427 0.14266321 0 0 Z M-29.76171875 40.9296875 C-31.5395185 43.6523049 -33.17343376 46.40655018 -34.75 49.25 C-35.2346875 50.10980469 -35.719375 50.96960938 -36.21875 51.85546875 C-41.92665404 62.55778882 -43.52144715 73.85571406 -40.625 85.75 C-37.08994571 97.14073048 -30.9181559 109.4712294 -20.75 116.25 C-15.72734835 116.25 -13.30600251 114.41891535 -9.90478516 111.04882812 C-9.33808105 110.45521484 -8.77137695 109.86160156 -8.1875 109.25 C-7.58470215 108.63060547 -6.9819043 108.01121094 -6.36083984 107.37304688 C8.31317326 91.96055019 22.94717962 74.10485082 22.5546875 51.97265625 C21.77844927 42.48861737 17.37251306 35.46164105 10.25 29.25 C-4.70937782 19.25012762 -20.10014225 28.06009239 -29.76171875 40.9296875 Z " fill="#FFFFFF" transform="translate(911.75,50.75)" />
	<path d="M0 0 C0.66 1.65 1.32 3.3 2 5 C-1.15107769 9.53755187 -4.04326455 11.73903295 -9 14 C-11.9375 13.75 -11.9375 13.75 -14 13 C-14.33 11.35 -14.66 9.7 -15 8 C-13.45025019 6.65186813 -11.88462935 5.3219657 -10.3125 4 C-9.44238281 3.2575 -8.57226562 2.515 -7.67578125 1.75 C-4.76416967 -0.15423648 -3.39853912 -0.39190361 0 0 Z " fill="#FFFFFF" transform="translate(202,131)" />
</svg>