<svg xmlns="http://www.w3.org/2000/svg" stroke="#ffffff" stroke-width="3" stroke-linecap="round" stroke-linejoin="round" fill="none" viewBox="0 0 87.71 42.48">
  <title>Truck</title>
  <g id="Layer_2" data-name="Layer 2">
    <g id="Layer_2-2" data-name="Layer 2">
      <path class="cls-1" d="M20.29,14.82V5.29A3.79,3.79,0,0,1,24.08,1.5H62.25A3.79,3.79,0,0,1,66,5.29v30.5H40.44" />
      <path class="cls-1" d="M30.07,35.79h-6A3.79,3.79,0,0,1,20.29,32V28.06" />
      <path class="cls-1" d="M70.94,35.79H66V9.42h8.07S86.21,12,86.21,24.56V35.79h-4.9" />
      <path class="cls-1" d="M72.73,9.42V18A5.25,5.25,0,0,0,78,23.22h8.18" />
      <circle class="cls-1" cx="76.13" cy="35.79" r="5.19" />
      <circle class="cls-1" cx="35.26" cy="35.79" r="5.19" />
      <line class="cls-1" x1="17.06" y1="28.06" x2="25.36" y2="28.06" />
      <line class="cls-1" x1="11.53" y1="21.64" x2="26.86" y2="21.64" />
      <line class="cls-1" x1="31.81" y1="25.91" x2="41.26" y2="25.91" />
      <line class="cls-1" x1="8.65" y1="27.26" x2="1.5" y2="27.26" />
      <line class="cls-1" x1="26.86" y1="7.58" x2="43.16" y2="7.58" />
      <circle cx="76.13" cy="35.79" r="1.4" />
      <circle cx="35.26" cy="35.79" r="1.4" />
    </g>
  </g>
</svg>